<svg id="Layer_1" data-name="Layer 1" xmlns="http://www.w3.org/2000/svg" xmlns:xlink="http://www.w3.org/1999/xlink" viewBox="0 0 207.19 84.51"><defs><clipPath id="clip-path"><rect width="207.19" height="84.51" fill="none"/></clipPath><clipPath id="clip-path-2"><path d="M42,22.51a9.85,9.85,0,0,0-9.82,9.82V51.08A9.85,9.85,0,0,0,42,60.89H97.9a9.85,9.85,0,0,0,9.82-9.81V32.33a9.85,9.85,0,0,0-9.82-9.82ZM65.71,5.36v14a1.09,1.09,0,0,0,0,.26C42.13,19.81,42.14,22,42.11,22H97.78s0-2.23-23.63-2.47a1.09,1.09,0,0,0,0-.26V5.36ZM67.57,0a1.87,1.87,0,0,0-1.86,1.86v3h8.47v-3A1.86,1.86,0,0,0,72.32,0Z" fill="none"/></clipPath><linearGradient id="linear-gradient" y1="84.62" x2="1" y2="84.62" gradientTransform="matrix(0, 72.4, 72.4, 0, -6056.24, 2.21)" gradientUnits="userSpaceOnUse"><stop offset="0" stop-color="#ed2024"/><stop offset="0" stop-color="#ed2024"/><stop offset="0.49" stop-color="#6abd45"/><stop offset="1" stop-color="#3953a4"/><stop offset="1" stop-color="#3953a4"/></linearGradient></defs><g clip-path="url(#clip-path)"><path d="M26.27,28H8.21a.29.29,0,0,0-.33.33v10a.29.29,0,0,0,.33.33H20.28a.76.76,0,0,1,.87.86v3.66a.77.77,0,0,1-.87.87H8.21a.29.29,0,0,0-.33.32V59.48a.76.76,0,0,1-.86.86H2.49a.76.76,0,0,1-.86-.86v-36a.77.77,0,0,1,.86-.87H26.27a.77.77,0,0,1,.86.87v3.66a.76.76,0,0,1-.86.86" fill="#010101"/><path d="M119.71,59.19A11.48,11.48,0,0,1,115,54.74a13,13,0,0,1-1.67-6.63V34.79A12.9,12.9,0,0,1,115,28.16a11.23,11.23,0,0,1,4.75-4.42,15.36,15.36,0,0,1,7.11-1.57,15.94,15.94,0,0,1,7.07,1.51,11.22,11.22,0,0,1,4.74,4.26,12,12,0,0,1,1.67,6.36c0,.36-.27.58-.81.65l-4.58.27h-.22c-.43,0-.64-.09-.64-.27v-.32a6.91,6.91,0,0,0-2-5.13,7.18,7.18,0,0,0-5.26-1.94,7.26,7.26,0,0,0-5.28,1.94,6.85,6.85,0,0,0-2,5.13V48.38a6.74,6.74,0,0,0,2,5.06,8.18,8.18,0,0,0,10.54,0,6.79,6.79,0,0,0,2-5.09.56.56,0,0,1,.24-.46.8.8,0,0,1,.62-.14l4.53.22c.57.07.86.16.86.27v.27A12.28,12.28,0,0,1,138.63,55a11.16,11.16,0,0,1-4.74,4.29,15.94,15.94,0,0,1-7.07,1.51,15.24,15.24,0,0,1-7.11-1.59" fill="#010101"/><path d="M153.13,59.21a11.34,11.34,0,0,1-4.77-4.45,12.88,12.88,0,0,1-1.7-6.65V23.47a.77.77,0,0,1,.87-.87h4.52a.77.77,0,0,1,.87.87V48.21a7,7,0,0,0,2,5.18,8,8,0,0,0,10.57,0,7,7,0,0,0,2-5.18V23.47a.77.77,0,0,1,.87-.87h4.53a.77.77,0,0,1,.86.87V48.11a13.06,13.06,0,0,1-1.67,6.65,11.23,11.23,0,0,1-4.75,4.45,16.79,16.79,0,0,1-14.18,0" fill="#010101"/><path d="M186.21,59.43a10.81,10.81,0,0,1-4.77-3.8,9.85,9.85,0,0,1-1.67-5.69V48.81a.76.76,0,0,1,.86-.87h4.42c.57,0,.86.27.86.81v.86a5,5,0,0,0,2.19,4.13,9.34,9.34,0,0,0,5.79,1.64,7.52,7.52,0,0,0,5-1.4,4.47,4.47,0,0,0,1.67-3.61,3.75,3.75,0,0,0-.91-2.56A8.72,8.72,0,0,0,197,45.89q-1.69-.86-5.09-2.15a54.77,54.77,0,0,1-6.2-2.64,11.55,11.55,0,0,1-4-3.37,8.63,8.63,0,0,1-1.59-5.31,9.07,9.07,0,0,1,3.45-7.5c2.3-1.83,5.38-2.75,9.22-2.75a17.28,17.28,0,0,1,7.15,1.4,11.47,11.47,0,0,1,4.82,3.91,10,10,0,0,1,1.73,5.8V34a.76.76,0,0,1-.86.86h-4.43a1,1,0,0,1-.62-.19.56.56,0,0,1-.24-.46V33.6a5.39,5.39,0,0,0-2.07-4.28,8.65,8.65,0,0,0-5.75-1.76,7.59,7.59,0,0,0-4.61,1.24,4.16,4.16,0,0,0-1.64,3.51,4,4,0,0,0,.86,2.64,7.9,7.9,0,0,0,2.59,1.86,57,57,0,0,0,5.34,2.13,61.28,61.28,0,0,1,6.12,2.64,11.77,11.77,0,0,1,3.93,3.32,8.41,8.41,0,0,1,1.65,5.31,9.61,9.61,0,0,1-1.62,5.52,10.46,10.46,0,0,1-4.64,3.72,17.45,17.45,0,0,1-7.11,1.33,17.86,17.86,0,0,1-7.2-1.35" fill="#010101"/></g><g clip-path="url(#clip-path-2)"><rect x="21.71" y="-17.79" width="96.47" height="96.47" transform="translate(-1.04 58.38) rotate(-45)" fill="url(#linear-gradient)"/></g><g clip-path="url(#clip-path)"><path d="M0,84.15v-10a.21.21,0,0,1,.24-.24H1.51a.32.32,0,0,1,.3.17l2.34,3.77s0,0,.07,0,0,0,0,0l2.37-3.77a.3.3,0,0,1,.29-.17H8.19a.21.21,0,0,1,.24.24v10a.21.21,0,0,1-.24.24H6.93c-.16,0-.23-.08-.23-.24V77.06a.07.07,0,0,0,0-.07s0,0-.07,0L4.81,80a.31.31,0,0,1-.3.16H3.92a.31.31,0,0,1-.3-.16L1.84,77s0,0-.07,0,0,0,0,.07v7.09a.21.21,0,0,1-.24.24H.24A.21.21,0,0,1,0,84.15" fill="#ed2024"/><path d="M11.74,84.15v-10A.21.21,0,0,1,12,73.9h1.26a.21.21,0,0,1,.24.24v10a.21.21,0,0,1-.24.24H12a.21.21,0,0,1-.24-.24" fill="#ed2024"/><path d="M16.23,84.24a.24.24,0,0,1,.05-.14l2.93-4.89a.09.09,0,0,0,0-.12l-2.93-4.9a.3.3,0,0,1-.05-.14c0-.1.07-.15.2-.15h1.38a.28.28,0,0,1,.28.17l2.16,3.65s0,0,.07,0,0,0,.05,0l2.17-3.65a.3.3,0,0,1,.28-.17h1.37c.13,0,.19,0,.19.15a.27.27,0,0,1,0,.14l-2.94,4.9a.09.09,0,0,0,0,.12l2.94,4.89a.23.23,0,0,1,0,.14c0,.1-.06.15-.19.15H22.82a.3.3,0,0,1-.28-.17l-2.17-3.64a.05.05,0,0,0-.05,0,.08.08,0,0,0-.07,0l-2.17,3.64a.29.29,0,0,1-.29.17H16.43c-.13,0-.2,0-.2-.15" fill="#ed2024"/><path d="M33.94,75.4h-5a.08.08,0,0,0-.09.09v2.77a.08.08,0,0,0,.09.09h3.36a.21.21,0,0,1,.24.24v1a.21.21,0,0,1-.24.24H28.9a.08.08,0,0,0-.09.09V82.8a.08.08,0,0,0,.09.09h5a.21.21,0,0,1,.24.24v1a.21.21,0,0,1-.24.24H27.32a.21.21,0,0,1-.24-.24v-10a.21.21,0,0,1,.24-.24h6.62a.21.21,0,0,1,.24.24v1a.21.21,0,0,1-.24.24" fill="#ed2024"/><path d="M37.07,84.15v-10a.21.21,0,0,1,.24-.24H40.9a4.4,4.4,0,0,1,1.87.38A2.86,2.86,0,0,1,44,75.35,2.92,2.92,0,0,1,44.47,77v4.35A2.9,2.9,0,0,1,44,82.94,2.8,2.8,0,0,1,42.77,84a4.4,4.4,0,0,1-1.87.38H37.31a.21.21,0,0,1-.24-.24m1.82-1.26H41a1.65,1.65,0,0,0,1.26-.5,1.91,1.91,0,0,0,.49-1.34V77.26a1.9,1.9,0,0,0-.48-1.36A1.72,1.72,0,0,0,41,75.4H38.89a.08.08,0,0,0-.09.09V82.8a.08.08,0,0,0,.09.09" fill="#ed2024"/><path d="M57.21,84.21l-2-4.28s0-.06-.11-.06H53.39a.08.08,0,0,0-.09.09v4.19a.21.21,0,0,1-.24.24H51.8a.21.21,0,0,1-.24-.24v-10a.21.21,0,0,1,.24-.24h4.06a3.4,3.4,0,0,1,1.62.38,2.76,2.76,0,0,1,1.09,1.08A3.21,3.21,0,0,1,59,77a2.89,2.89,0,0,1-.53,1.76,2.67,2.67,0,0,1-1.46,1,.1.1,0,0,0-.06,0,.06.06,0,0,0,0,.07L59,84.1l0,.12c0,.11-.07.17-.21.17H57.49a.28.28,0,0,1-.28-.18M53.3,75.48v3a.08.08,0,0,0,.09.09h2.23a1.57,1.57,0,0,0,1.16-.43A1.46,1.46,0,0,0,57.23,77a1.54,1.54,0,0,0-.45-1.15,1.58,1.58,0,0,0-1.16-.44H53.39a.08.08,0,0,0-.09.09" fill="#6abd45"/><path d="M68.73,75.4h-5a.08.08,0,0,0-.09.09v2.77a.08.08,0,0,0,.09.09h3.35a.21.21,0,0,1,.24.24v1a.21.21,0,0,1-.24.24H63.7a.08.08,0,0,0-.09.09V82.8a.08.08,0,0,0,.09.09h5a.21.21,0,0,1,.24.24v1a.21.21,0,0,1-.24.24H62.11a.21.21,0,0,1-.24-.24v-10a.21.21,0,0,1,.24-.24h6.62a.21.21,0,0,1,.24.24v1a.21.21,0,0,1-.24.24" fill="#6abd45"/><path d="M78.15,84.19l-.47-1.54c0-.05,0-.07-.1-.07H73.65c-.06,0-.09,0-.1.07l-.46,1.54a.26.26,0,0,1-.27.2H71.45a.2.2,0,0,1-.17-.08.24.24,0,0,1,0-.19l3.2-10a.26.26,0,0,1,.27-.2h1.75a.26.26,0,0,1,.27.2l3.22,10a.2.2,0,0,1,0,.09q0,.18-.21.18H78.42a.26.26,0,0,1-.27-.2m-4.06-3h3c.06,0,.09,0,.08-.1L75.68,76s0-.06-.06-.06,0,0-.06.06L74,81.11c0,.07,0,.1.08.1" fill="#6abd45"/><path d="M82.69,84.15v-10a.21.21,0,0,1,.24-.24h1.25a.21.21,0,0,1,.24.24V82.8a.08.08,0,0,0,.09.09h4.95a.21.21,0,0,1,.23.24v1a.21.21,0,0,1-.23.24H82.93a.21.21,0,0,1-.24-.24" fill="#6abd45"/><path d="M92.36,84.15v-10a.21.21,0,0,1,.24-.24h1.26a.21.21,0,0,1,.24.24v10a.21.21,0,0,1-.24.24H92.6a.21.21,0,0,1-.24-.24" fill="#6abd45"/><path d="M104.48,74.14v1a.21.21,0,0,1-.24.24h-2.68a.08.08,0,0,0-.09.09v8.64a.21.21,0,0,1-.24.24H100a.21.21,0,0,1-.24-.24V75.51a.08.08,0,0,0-.09-.09H97.06a.21.21,0,0,1-.24-.24v-1a.21.21,0,0,1,.24-.24h7.18a.21.21,0,0,1,.24.24" fill="#6abd45"/><path d="M109.72,84.13V80.2a.26.26,0,0,0,0-.11l-3-5.9a.27.27,0,0,1,0-.14c0-.09.07-.14.21-.14h1.36a.31.31,0,0,1,.29.17l2,4.12s0,0,.06,0a.06.06,0,0,0,.06,0l2.06-4.12a.31.31,0,0,1,.29-.17h1.38c.14,0,.21,0,.21.14a.3.3,0,0,1,0,.14l-3.05,5.9a.62.62,0,0,0,0,.11v3.93a.21.21,0,0,1-.24.24H110a.21.21,0,0,1-.24-.24" fill="#6abd45"/><path d="M122.79,84.13a3,3,0,0,1-1.33-1A2.74,2.74,0,0,1,121,81.5v-.32a.21.21,0,0,1,.24-.24h1.22a.21.21,0,0,1,.24.23v.24a1.38,1.38,0,0,0,.61,1.14,2.57,2.57,0,0,0,1.61.46,2.1,2.1,0,0,0,1.38-.39,1.24,1.24,0,0,0,.46-1,1,1,0,0,0-.25-.71,2.12,2.12,0,0,0-.73-.53,14.77,14.77,0,0,0-1.41-.6,14.87,14.87,0,0,1-1.73-.74,3.29,3.29,0,0,1-1.1-.93,2.45,2.45,0,0,1-.44-1.48,2.51,2.51,0,0,1,1-2.08,4,4,0,0,1,2.56-.76,5,5,0,0,1,2,.38A3.23,3.23,0,0,1,128,75.26a2.76,2.76,0,0,1,.48,1.61v.2c0,.16-.08.23-.24.23H127a.23.23,0,0,1-.17,0,.13.13,0,0,1-.07-.12V77a1.48,1.48,0,0,0-.58-1.19,2.42,2.42,0,0,0-1.59-.49,2.07,2.07,0,0,0-1.28.35,1.13,1.13,0,0,0-.46,1,1.07,1.07,0,0,0,.24.73,2.09,2.09,0,0,0,.72.52,14.89,14.89,0,0,0,1.48.59,16.19,16.19,0,0,1,1.7.74,3.19,3.19,0,0,1,1.09.92,2.29,2.29,0,0,1,.46,1.47,2.7,2.7,0,0,1-.45,1.54,2.91,2.91,0,0,1-1.29,1,4.81,4.81,0,0,1-2,.37,5,5,0,0,1-2-.38" fill="#3953a4"/><path d="M138.25,74.14v1a.21.21,0,0,1-.24.24h-2.68a.08.08,0,0,0-.09.09v8.64a.21.21,0,0,1-.24.24h-1.26a.21.21,0,0,1-.24-.24V75.51a.08.08,0,0,0-.09-.09h-2.57a.21.21,0,0,1-.24-.24v-1a.21.21,0,0,1,.24-.24H138a.21.21,0,0,1,.24.24" fill="#3953a4"/><path d="M146.62,84.21l-2-4.28s0-.06-.11-.06H142.8a.08.08,0,0,0-.09.09v4.19a.21.21,0,0,1-.24.24h-1.26a.21.21,0,0,1-.23-.24v-10a.21.21,0,0,1,.23-.24h4.06a3.4,3.4,0,0,1,1.62.38A2.76,2.76,0,0,1,148,75.35a3.21,3.21,0,0,1,.39,1.6,2.89,2.89,0,0,1-.53,1.76,2.67,2.67,0,0,1-1.46,1,.1.1,0,0,0-.06,0,.06.06,0,0,0,0,.07l2.06,4.28,0,.12c0,.11-.07.17-.21.17h-1.31a.29.29,0,0,1-.29-.18m-3.91-8.73v3a.08.08,0,0,0,.09.09H145a1.57,1.57,0,0,0,1.16-.43,1.46,1.46,0,0,0,.45-1.11,1.54,1.54,0,0,0-.45-1.15,1.58,1.58,0,0,0-1.16-.44H142.8a.08.08,0,0,0-.09.09" fill="#3953a4"/><path d="M158.14,75.4h-5a.08.08,0,0,0-.09.09v2.77a.08.08,0,0,0,.09.09h3.35a.21.21,0,0,1,.24.24v1a.21.21,0,0,1-.24.24h-3.35a.08.08,0,0,0-.09.09V82.8a.08.08,0,0,0,.09.09h5a.21.21,0,0,1,.24.24v1a.21.21,0,0,1-.24.24h-6.62a.21.21,0,0,1-.24-.24v-10a.21.21,0,0,1,.24-.24h6.62a.21.21,0,0,1,.24.24v1a.21.21,0,0,1-.24.24" fill="#3953a4"/><path d="M167.56,84.19l-.46-1.54a.1.1,0,0,0-.11-.07h-3.92c-.06,0-.1,0-.11.07l-.46,1.54a.26.26,0,0,1-.27.2h-1.37a.2.2,0,0,1-.17-.08.24.24,0,0,1,0-.19l3.21-10a.25.25,0,0,1,.26-.2h1.76a.26.26,0,0,1,.27.2l3.22,10a.22.22,0,0,1,0,.09q0,.18-.21.18h-1.36a.26.26,0,0,1-.27-.2m-4.06-3h3.06c.06,0,.08,0,.07-.1L165.09,76s0-.06-.05-.06,0,0-.07.06l-1.54,5.09c0,.07,0,.1.07.1" fill="#3953a4"/><path d="M172.1,84.15v-10a.21.21,0,0,1,.24-.24h1.27a.32.32,0,0,1,.3.17l2.34,3.77s0,0,.06,0a.06.06,0,0,0,.06,0l2.36-3.77a.32.32,0,0,1,.3-.17h1.26a.21.21,0,0,1,.24.24v10a.21.21,0,0,1-.24.24H179a.21.21,0,0,1-.24-.24V77.06s0-.06,0-.07,0,0-.06,0L176.91,80a.31.31,0,0,1-.3.16H176a.31.31,0,0,1-.3-.16L173.94,77s0,0-.07,0a.07.07,0,0,0,0,.07v7.09a.21.21,0,0,1-.23.24h-1.26a.21.21,0,0,1-.24-.24" fill="#3953a4"/><path d="M183.84,84.15v-10a.21.21,0,0,1,.24-.24h1.26a.21.21,0,0,1,.24.24v10a.21.21,0,0,1-.24.24h-1.26a.21.21,0,0,1-.24-.24" fill="#3953a4"/><path d="M188.89,84.15v-10a.21.21,0,0,1,.24-.24h1.19a.32.32,0,0,1,.3.17l4.2,6.86s0,0,.06,0,0,0,0-.07V74.14a.21.21,0,0,1,.24-.24h1.26a.21.21,0,0,1,.24.24v10a.21.21,0,0,1-.24.24h-1.23a.32.32,0,0,1-.3-.17l-4.19-6.9s0-.06-.07,0a.09.09,0,0,0,0,.08l0,6.8a.21.21,0,0,1-.24.24h-1.24a.21.21,0,0,1-.24-.24" fill="#3953a4"/><path d="M201.48,84.07a3.19,3.19,0,0,1-1.32-1.25A3.67,3.67,0,0,1,199.7,81V77.33a3.64,3.64,0,0,1,.46-1.86,3.16,3.16,0,0,1,1.32-1.24,4.56,4.56,0,0,1,3.93,0,3.2,3.2,0,0,1,1.31,1.18,3.16,3.16,0,0,1,.47,1.69v.06a.21.21,0,0,1-.24.24H205.7a.43.43,0,0,1-.17,0,.12.12,0,0,1-.06-.1v-.12a1.78,1.78,0,0,0-.55-1.33,2,2,0,0,0-1.46-.53,2,2,0,0,0-1.47.55,1.93,1.93,0,0,0-.55,1.44V81a1.86,1.86,0,0,0,.58,1.44,2.1,2.1,0,0,0,1.51.55,2.06,2.06,0,0,0,1.42-.47,1.7,1.7,0,0,0,.52-1.3v-.91a.08.08,0,0,0-.09-.09h-1.77a.21.21,0,0,1-.24-.24V79a.21.21,0,0,1,.24-.24H207a.21.21,0,0,1,.24.24v1.86a3.53,3.53,0,0,1-1,2.68,3.8,3.8,0,0,1-2.72,1,4.31,4.31,0,0,1-2-.44" fill="#3953a4"/><path d="M92.06,41.18v.3c0,.15-.07.23-.22.23H86.67c-.06,0-.08,0-.08.08v5c0,.15-.08.22-.23.22h-.3c-.16,0-.23-.07-.23-.22v-5c0-.06,0-.08-.08-.08H80.58c-.15,0-.22-.08-.22-.23v-.3c0-.15.07-.23.22-.23h5.17s.08,0,.08-.08V35.56c0-.15.07-.22.23-.22h.3c.15,0,.23.07.23.22v5.31c0,.06,0,.08.08.08h5.17c.15,0,.22.08.22.23" fill="#fff"/><circle cx="86.08" cy="41.31" r="8.73" fill="none" stroke="#fff" stroke-miterlimit="10" stroke-width="0.6"/><path d="M59.8,41.18v.3a.2.2,0,0,1-.22.23H54.4s-.08,0-.08.08v5c0,.15-.07.22-.23.22h-.3a.19.19,0,0,1-.22-.22v-5c0-.06,0-.08-.09-.08H48.32a.21.21,0,0,1-.23-.23v-.3a.21.21,0,0,1,.23-.23h5.16c.06,0,.09,0,.09-.08V35.56a.19.19,0,0,1,.22-.22h.3c.16,0,.23.07.23.22v5.31c0,.06,0,.08.08.08h5.18a.2.2,0,0,1,.22.23" fill="#fff"/><circle cx="53.81" cy="41.31" r="8.73" fill="none" stroke="#fff" stroke-miterlimit="10" stroke-width="0.6"/><polygon points="62.5 27.85 60.75 23.62 56.52 21.86 65.68 18.69 62.5 27.85" fill="#231f20"/><polygon points="91.76 45.01 96.32 44.53 99.2 40.96 99.65 50.65 91.76 45.01" fill="#231f20"/><path d="M99.31,49.22c-3.67-7.78-10.15-16.51-18.24-24.6C64.3,7.85,45.72-.84,39.64,5.23c-3.14,3.15-2.33,9.63,1.5,17.48l.5,0h.09c-3.82-7.69-4.69-14-1.67-17a7.11,7.11,0,0,1,5.23-1.82C53.52,3.84,67.6,12,80.64,25c8,8,14.48,16.72,18.13,24.43s4,13.36,1.26,16.15S91.5,68,83.88,64.36a62.63,62.63,0,0,1-6.31-3.47,10.3,10.3,0,0,1-1.28-.12,65.13,65.13,0,0,0,7.33,4.14C88,67,91.81,68,94.83,68a7.65,7.65,0,0,0,5.62-2c3-3,2.58-9-1.14-16.83" fill="#231f20"/><path d="M62.51,60.89a61.63,61.63,0,0,1-6.3,3.47c-7.62,3.61-13.36,4-16.15,1.26s-2.34-8.52,1.26-16.15S51.41,33.08,59.45,25,76.16,10.56,83.88,6.92c4.32-2,8-3.07,10.94-3.07A7.1,7.1,0,0,1,100,5.66c2.79,2.79,2.34,8.53-1.26,16.15l-.38.74.62.1c.1-.19.21-.39.3-.59,3.72-7.86,4.12-13.84,1.14-16.83s-9-2.58-16.83,1.15S67.11,16.53,59,24.62,44.46,41.44,40.78,49.22s-4.12,13.84-1.14,16.83a7.65,7.65,0,0,0,5.62,2c3,0,6.82-1,11.21-3.11a66.26,66.26,0,0,0,7.22-4.07,9.16,9.16,0,0,1-1.06.06h-.12" fill="#231f20"/></g></svg>